<?xml version="1.0" encoding="UTF-8"?><svg id="Lag_1" xmlns="http://www.w3.org/2000/svg" viewBox="0 0 500 141.02"><defs><style>.cls-1{fill:currentColor;}</style></defs><path class="cls-1" d="M470.31,40.21c-6.58-3.24-13.91-5.16-21.68-5.41h-3.52c-7.76,.25-15.1,2.17-21.67,5.41-5.27,2.58-10.03,6.02-14.13,10.12l-1.23,1.28-14.32,14.88-3.17,3.29c-7.21-19.9-25.98-34.27-48.19-34.98h-3.52c-13.97,.45-26.58,6.3-35.8,15.53l-1.23,1.28-17.49,18.17-17.43,18.11-15.95,16.57c-4.23,4.24-10.09,6.87-16.57,6.87-12.95,0-23.44-10.49-23.44-23.44,0-6.47,2.62-12.33,6.87-16.57,4.23-4.24,10.09-6.87,16.57-6.87s12.34,2.62,16.57,6.87l20.99-20.99c-9.23-9.23-21.84-15.08-35.8-15.53h-3.52c-13.97,.45-26.58,6.3-35.8,15.53-.3,.3-.59,.6-.89,.91l-14.89,15.26-3.19,3.27c-4.7-12.93-14.27-23.52-26.5-29.52-7.07-3.49-15.02-5.45-23.44-5.45-.6,0-1.2,0-1.8,.03-7.77,.26-15.13,2.19-21.71,5.45-10.56,5.21-19.14,13.84-24.29,24.44l-1.5,3.38-3.9,8.76-4.9,11.03-6.75,15.18-6.75-15.18-23.59-53.09H0l23.91,53.09,23.1,51.3,.81,1.82h30.48l.81-1.82,7.85-17.42,15.25-33.88,2.18-4.84,1.91-4.24,.47-1.04c3.78-7.86,11.82-13.28,21.12-13.28,12.94,0,23.42,10.48,23.44,23.41v53.12h29.69v-31.49l3.4-3.52c7.4,20.43,26.97,35.02,49.95,35.02,14.66,0,27.94-5.95,37.56-15.56l.99-1.02,17.74-18.43c7.4,20.43,26.97,35.02,49.95,35.02,14.66,0,27.94-5.95,37.56-15.56l.99-1.02,14.57-15.14v31.73h29.69v-53.12c0-6.47,2.62-12.33,6.87-16.57,4.23-4.24,10.09-6.87,16.57-6.87,12.95,0,23.44,10.49,23.44,23.44v53.12h29.69v-53.12c0-20.92-12.1-39.02-29.69-47.68Zm-153.12,47.68c0-6.47,2.62-12.33,6.87-16.57,4.23-4.24,10.09-6.87,16.57-6.87,12.95,0,23.44,10.49,23.44,23.44,0,6.47-2.62,12.33-6.87,16.57-4.23,4.24-10.09,6.87-16.57,6.87-12.95,0-23.44-10.49-23.44-23.44Z"/><circle class="cls-1" cx="166.18" cy="16.41" r="16.41"/></svg>