<?xml version="1.0" encoding="UTF-8"?><svg id="Lag_1" xmlns="http://www.w3.org/2000/svg" viewBox="0 0 150 101.54"><defs><style>.cls-1{fill:#bd5d2e;}</style></defs><path class="cls-1" d="M114.28,29.73c-18.77,0-29.71,12.21-39.19,25.7l-6.92,10.39-.21,.3h0c-8.86,12.81-17.59,23.94-32.24,23.94-13.3,0-24.06-10.93-24.06-24.24s10.75-24.42,24.06-24.42,21.13,8.69,28.95,19.46h0l6.84-10.32c-8.71-11.41-19.17-20.81-35.79-20.81C16.22,29.73,0,45.77,0,65.82s16.22,35.72,35.72,35.72,29.71-12.21,39.19-25.7l7.11-10.39c8.75-12.94,17.68-24.24,32.26-24.24,13.31,0,24.06,11.12,24.06,24.61s-10.75,24.06-24.06,24.06-21.06-8.67-28.78-19.42h0l-7,10.3c8.71,11.4,19.17,20.79,35.78,20.79,19.5,0,35.72-16.04,35.72-35.72s-16.22-36.09-35.72-36.09Z"/><path class="cls-1" d="M23.61,12.15c0-6.6,5.31-12.15,12.15-12.15s12.15,5.55,12.15,12.15-5.14,12.15-12.15,12.15-12.15-5.38-12.15-12.15Z"/><path class="cls-1" d="M102.61,12.15C102.61,5.55,107.91,0,114.76,0s12.15,5.55,12.15,12.15-5.14,12.15-12.15,12.15-12.15-5.38-12.15-12.15Z"/></svg>