<svg id="Rådgivning" xmlns="http://www.w3.org/2000/svg" width="152" height="157.715" viewBox="0 0 152 157.715">
  <path id="Path_155" data-name="Path 155" d="M42.24,71.69a20.908,20.908,0,0,1-2.09-9.15V22a21,21,0,0,1,21-21H130a21,21,0,0,1,21,21V62.55a21,21,0,0,1-21,21h-3.3v17.74L98.9,83.54H87.68" fill="none" stroke="currentColor" stroke-miterlimit="10" stroke-width="2"/>
  <path id="Path_156" data-name="Path 156" d="M26.57,72.6a33.163,33.163,0,0,1,7.45-.84H61.67c18.51,0,34.02,15.15,33.66,33.66a33.01,33.01,0,0,1-33.01,32.37H58.87l-.16.1-28.2,18V137.61A33.025,33.025,0,0,1,26.57,72.6Z" fill="none" stroke="currentColor" stroke-miterlimit="10" stroke-width="2"/>
  <line id="Line_135" data-name="Line 135" x2="52.5" transform="translate(69.8 29.02)" fill="none" stroke="currentColor" stroke-miterlimit="10" stroke-width="2"/>
  <line id="Line_136" data-name="Line 136" x2="52.5" transform="translate(69.8 42.26)" fill="none" stroke="currentColor" stroke-miterlimit="10" stroke-width="2"/>
  <line id="Line_137" data-name="Line 137" x2="52.5" transform="translate(69.8 55.66)" fill="none" stroke="currentColor" stroke-miterlimit="10" stroke-width="2"/>
  <circle id="Ellipse_111" data-name="Ellipse 111" cx="3.78" cy="3.78" r="3.78" transform="translate(29.12 100.99)" fill="none" stroke="currentColor" stroke-miterlimit="10" stroke-width="2"/>
  <circle id="Ellipse_112" data-name="Ellipse 112" cx="3.78" cy="3.78" r="3.78" transform="translate(44.39 100.99)" fill="none" stroke="currentColor" stroke-miterlimit="10" stroke-width="2"/>
  <circle id="Ellipse_113" data-name="Ellipse 113" cx="3.78" cy="3.78" r="3.78" transform="translate(59.66 100.99)" fill="none" stroke="currentColor" stroke-miterlimit="10" stroke-width="2"/>
</svg>
