<svg id="Rekruttering" xmlns="http://www.w3.org/2000/svg" width="222" height="109.21" viewBox="0 0 222 109.21">
  <circle id="Ellipse_114" data-name="Ellipse 114" cx="18.26" cy="18.26" r="18.26" transform="translate(4.19 23.51)" fill="none" stroke="currentColor" stroke-miterlimit="10" stroke-width="2"/>
  <circle id="Ellipse_115" data-name="Ellipse 115" cx="18.26" cy="18.26" r="18.26" transform="translate(121.41 23.41)" fill="none" stroke="currentColor" stroke-miterlimit="10" stroke-width="2"/>
  <circle id="Ellipse_116" data-name="Ellipse 116" cx="18.26" cy="18.26" r="18.26" transform="translate(181.93 23.62)" fill="none" stroke="currentColor" stroke-miterlimit="10" stroke-width="2"/>
  <circle id="Ellipse_117" data-name="Ellipse 117" cx="18.26" cy="18.26" r="18.26" transform="translate(60.89 1)" fill="none" stroke="currentColor" stroke-miterlimit="10" stroke-width="2"/>
  <path id="Path_157" data-name="Path 157" d="M14,65.63H30.47a13.012,13.012,0,0,1,13,13V108.1H1V78.63A13.012,13.012,0,0,1,14,65.63Z" fill="none" stroke="currentColor" stroke-miterlimit="10" stroke-width="2"/>
  <path id="Path_158" data-name="Path 158" d="M131.43,65.53H147.9a13.012,13.012,0,0,1,13,13V108H118.43V78.53A13.012,13.012,0,0,1,131.43,65.53Z" fill="none" stroke="currentColor" stroke-miterlimit="10" stroke-width="2"/>
  <path id="Path_159" data-name="Path 159" d="M191.53,65.74H208a13.012,13.012,0,0,1,13,13v29.47H178.53V78.74A13.012,13.012,0,0,1,191.53,65.74Z" fill="none" stroke="currentColor" stroke-miterlimit="10" stroke-width="2"/>
  <path id="Path_160" data-name="Path 160" d="M71.12,43.12H87.59a13.012,13.012,0,0,1,13,13V85.59H58.12V56.12a13.012,13.012,0,0,1,13-13Z" fill="none" stroke="currentColor" stroke-miterlimit="10" stroke-width="2"/>
</svg>
