<svg xmlns="http://www.w3.org/2000/svg" width="40" height="40" viewBox="0 0 40 40">
  <g id="surface70292163">
    <path id="Path_264" data-name="Path 264" d="M5.261,3.008C3.376,3.008,2,4.139,2,5.693s1.4,2.739,3.257,2.739c1.885,0,3.255-1.151,3.255-2.77A2.971,2.971,0,0,0,5.261,3.008ZM2.543,9.525A.545.545,0,0,0,2,10.069V25.83a.545.545,0,0,0,.543.543H7.978a.545.545,0,0,0,.543-.543V10.069a.545.545,0,0,0-.543-.543Zm8.152,0a.545.545,0,0,0-.543.543V25.83a.545.545,0,0,0,.543.543h4.891a.545.545,0,0,0,.543-.543V17.406a2.438,2.438,0,0,1,2.25-2.435,1.805,1.805,0,0,1,.391,0,2.438,2.438,0,0,1,2.25,2.435V25.83a.545.545,0,0,0,.543.543h4.891A.545.545,0,0,0,27,25.83V16.591c0-3.516-1.887-7.065-6.093-7.065a7.352,7.352,0,0,0-4.233,1.352v-.809a.545.545,0,0,0-.543-.543Zm0,0" fill="currentColor"/>
  </g>
</svg>
